<svg xmlns="http://www.w3.org/2000/svg" width="256" height="256" viewBox="0 0 100 100"><rect width="100" height="100" rx="20" fill="#f300ff"></rect><path fill="#fff" d="M48.79 61.11L43.40 61.11L43.40 78.50Q42.37 78.78 40.23 79.06Q38.10 79.34 35.86 79.34L35.86 79.34Q30.93 79.34 29.03 77.67Q27.12 75.99 27.12 71.62L27.12 71.62L27.12 27.54Q27.12 25.59 28.19 24.52Q29.26 23.45 31.12 22.80L31.12 22.80Q34.28 21.68 38.61 21.17Q42.93 20.66 46.47 20.66L46.47 20.66Q59.30 20.66 66.09 26.15Q72.88 31.63 72.88 41.03L72.88 41.03Q72.88 45.58 71.16 49.26Q69.44 52.93 66.32 55.58Q63.21 58.23 58.74 59.67Q54.28 61.11 48.79 61.11L48.79 61.11ZM43.30 48.37L47.77 48.37Q51.67 48.37 54.00 46.47Q56.32 44.56 56.32 41.03L56.32 41.03Q56.32 37.49 54.14 35.58Q51.95 33.68 47.77 33.68L47.77 33.68Q46.28 33.68 45.30 33.72Q44.33 33.77 43.30 33.96L43.30 33.96L43.30 48.37Z"></path></svg>